<?xml version="1.0" standalone="no"?>
<!DOCTYPE svg PUBLIC "-//W3C//DTD SVG 20010904//EN"
 "http://www.w3.org/TR/2001/REC-SVG-20010904/DTD/svg10.dtd">
<svg version="1.0" xmlns="http://www.w3.org/2000/svg"
 width="260.000000pt" height="260.000000pt" viewBox="0 0 260.000000 260.000000"
 preserveAspectRatio="xMidYMid meet">
<metadata>
Created by potrace 1.11, written by Peter Selinger 2001-2013
</metadata>
<g transform="translate(0.000000,260.000000) scale(0.100000,-0.100000)"
fill="#000000" stroke="none">
<path d="M1250 2532 c-76 -7 -216 -65 -256 -106 -60 -61 -95 -167 -95 -284 0
-39 2 -76 5 -81 4 -5 3 -16 0 -25 -5 -13 -9 -14 -21 -5 -9 8 -17 9 -24 2 -14
-14 -13 -102 2 -138 16 -38 17 -44 25 -80 4 -16 20 -41 36 -55 16 -14 30 -38
32 -55 14 -106 22 -136 47 -185 34 -66 35 -73 9 -136 -21 -50 -39 -64 -140
-107 -19 -9 -71 -32 -115 -52 -44 -20 -89 -38 -100 -41 -11 -2 -47 -18 -79
-35 -33 -17 -85 -39 -117 -49 -74 -23 -148 -81 -177 -139 -12 -25 -29 -58 -38
-74 -14 -25 -40 -111 -50 -167 -3 -14 -7 -32 -9 -40 -3 -8 -7 -33 -10 -55 -4
-22 -24 -111 -46 -197 -22 -86 -42 -171 -44 -190 -14 -132 -18 -165 -24 -183
-18 -51 -23 -50 232 -52 l237 -3 1 33 c1 17 1 36 0 41 -3 15 11 48 17 41 4 -4
7 -10 8 -13 0 -4 6 -28 13 -54 l13 -47 952 2 951 2 1 25 c1 14 -3 34 -9 45 -6
11 -12 81 -14 155 -1 74 -4 151 -5 170 -1 19 1 70 5 113 8 74 6 83 -27 171
-19 52 -37 118 -40 149 -8 75 -21 105 -64 151 -37 38 -145 95 -220 115 -22 6
-73 29 -113 52 -41 22 -99 52 -129 65 -30 14 -57 28 -60 32 -3 4 -32 20 -66
36 -64 30 -64 29 -124 159 l-32 69 23 70 c12 39 23 86 24 105 2 29 8 38 33 49
59 24 135 232 97 264 -7 6 -26 10 -42 8 -28 -3 -28 -3 -23 47 2 28 4 88 3 135
-1 70 -5 92 -24 125 -13 22 -31 53 -39 70 -8 16 -25 35 -37 41 -13 6 -31 18
-41 27 -10 10 -24 17 -30 17 -7 0 -12 4 -12 9 0 5 -15 14 -32 20 -31 10 -53
14 -133 26 -16 2 -39 6 -50 7 -11 2 -36 2 -55 0z"/>
</g>
</svg>
